<svg width="73" height="64" viewBox="0 0 73 64" fill="none" xmlns="http://www.w3.org/2000/svg">
<g id="speed-test-icon 1" clip-path="url(#clip0_64_528)">
<path id="Vector" d="M67.9141 39.0748H61.9581V33.332H67.8786C67.2162 26.4411 64.3034 19.96 59.5899 14.8898L56.3751 18.1046L52.3374 14.0373L55.3391 11.0356C50.4123 7.33601 44.5088 5.16233 38.3592 4.7836V8.9812H32.6223V4.94346C26.5122 5.6733 20.7494 8.17599 16.0451 12.1427L19.1947 15.2924L15.1392 19.3479L12.0073 16.216C7.97755 21.0759 5.50221 27.0353 4.9028 33.3201H10.0654V39.0748H4.83767C5.36563 45.3595 7.76848 51.3408 11.735 56.2441L16.1102 51.8689L20.1657 55.9244L15.7254 60.3647L15.7846 60.4121L12.7237 63.9644C7.11578 59.1587 3.10266 52.7606 1.21742 45.62C-0.667824 38.4793 -0.335962 30.9341 2.16892 23.9865C4.67381 17.039 9.23316 11.0179 15.2413 6.72321C21.2495 2.42848 28.4222 0.0633268 35.8065 -0.0580693C43.1908 -0.179465 50.4373 1.94864 56.5834 6.04356C62.7295 10.1385 67.4843 16.0064 70.2162 22.8679C72.9481 29.7293 73.5278 37.2596 71.8783 44.4583C70.2288 51.6571 66.4282 58.1836 60.9812 63.171L58.9032 60.9153L53.8767 55.9303L57.9322 51.8748L61.5733 55.5396C63.0862 53.5506 64.3599 51.3906 65.3683 49.104C66.7686 45.9133 67.6289 42.5121 67.9141 39.0393V39.0748ZM36.3759 24.2737C37.0937 24.2722 37.8098 24.3436 38.5132 24.4868L31.8527 29.5015C31.7704 29.5601 31.6932 29.6254 31.6218 29.6968C29.07 31.84 28.4839 34.5457 29.1174 36.8961C29.4429 38.093 30.0803 39.1819 30.9646 40.0517C31.8576 40.9275 32.9736 41.5417 34.1912 41.8278C36.6423 42.4199 39.5196 41.662 41.8878 38.6367C41.9464 38.5656 41.9998 38.4904 42.0477 38.4117L46.6656 32.065C47.2474 34.2089 47.1467 36.4808 46.3774 38.5648C45.6081 40.6487 44.2085 42.4412 42.3733 43.6928C40.994 44.6276 39.4147 45.226 37.7622 45.4399C36.1097 45.6538 34.4301 45.4772 32.8582 44.9243C31.2863 44.3714 29.866 43.4577 28.7113 42.2564C27.5566 41.0551 26.6996 39.5998 26.2093 38.0073C25.719 36.4148 25.6089 34.7295 25.8879 33.0867C26.167 31.444 26.8273 29.8896 27.816 28.5483C28.8046 27.207 30.094 26.1162 31.5806 25.3636C33.0672 24.6109 34.7096 24.2174 36.3759 24.2145V24.2737Z" fill="black"/>
<path id="Vector_2" fill-rule="evenodd" clip-rule="evenodd" d="M50.6909 18.1816L33.2729 31.3783C27.6722 35.866 34.9306 43.6692 40.0341 37.204L52.615 19.9223L50.6909 18.1816Z" fill="#EF1C25"/>
</g>
<defs>
<clipPath id="clip0_64_528">
<rect width="72.7504" height="64" fill="white"/>
</clipPath>
</defs>
</svg>
