<svg width="89" height="64" viewBox="0 0 89 64" fill="none" xmlns="http://www.w3.org/2000/svg">
<g id="commitment-icon 1" clip-path="url(#clip0_64_522)">
<g id="Vector">
<path fill-rule="evenodd" clip-rule="evenodd" d="M11.3168 43.1453C12.3688 43.1453 13.2227 44.0006 13.2227 45.0582C13.2227 46.1139 12.3688 46.971 11.3168 46.971C10.2631 46.971 9.40916 46.1139 9.40916 45.0582C9.40916 44.0006 10.2631 43.1453 11.3168 43.1453Z" fill="black"/>
<path fill-rule="evenodd" clip-rule="evenodd" d="M45.372 0C52.0677 0 57.4927 5.44824 57.4927 12.1648C57.4927 18.8848 52.0642 24.3279 45.372 24.3279C38.6746 24.3279 33.2512 18.8814 33.2512 12.1648C33.2512 5.44306 38.678 0 45.372 0ZM43.0804 11.7518C42.7567 11.4995 42.4107 11.2766 41.9906 11.0347L41.8924 10.9777L38.4525 11.7587L39.0034 12.1372C40.1966 12.9579 41.0591 13.8115 41.7719 14.7792C42.4899 15.752 43.0615 16.8493 43.6658 18.147L43.9154 18.6826L44.1875 18.1574C45.3582 15.892 46.4291 14.1399 47.6274 12.4862C48.8257 10.8343 50.16 9.27048 51.8507 7.38528L52.2898 6.89627H49.0547L49.0013 6.917C48.385 7.15719 47.4725 7.98143 46.5617 8.95599C45.4701 10.1258 44.3614 11.5272 43.7811 12.3791C43.5623 12.154 43.3281 11.9444 43.0804 11.7518Z" fill="#FF4A4A"/>
<path fill-rule="evenodd" clip-rule="evenodd" d="M64.2521 52.0028H67.2031L66.7848 49.7668H63.0762L52.1624 30.0129C50.0344 26.4291 47.8822 26.4723 45.7198 27.7665C44.7866 28.3246 43.8965 29.1402 43.0064 29.9558C42.6018 30.3273 42.1972 30.6989 41.7099 31.1032L39.7799 32.7033C38.7744 33.5033 37.6588 33.9336 36.612 34.02C35.956 34.0735 35.3362 33.9975 34.799 33.7936C34.2911 33.6035 33.8487 33.2977 33.5198 32.8864C33.2357 32.5322 33.0274 32.0881 32.9241 31.5594L38.1701 25.2921C37.5193 24.9327 36.8961 24.5231 36.309 24.0721L30.9769 30.4397C30.7565 30.6626 30.6291 30.9771 30.6566 31.3175C30.7548 32.4994 31.1663 33.4947 31.7964 34.2774C32.3801 35.0066 33.1497 35.5423 34.0277 35.8723C34.8765 36.192 35.8217 36.3164 36.7928 36.2369C38.2528 36.1143 39.792 35.5302 41.159 34.4381L43.1217 32.8156C43.5246 32.4821 44.0119 32.0363 44.4956 31.5905L44.5112 31.5762C45.3066 30.8483 46.1 30.1222 46.8544 29.6707C47.9253 29.0296 49.034 29.0832 50.2616 31.1464L61.3201 51.1647C61.3631 51.3272 61.4421 51.4777 61.5512 51.6052C61.6603 51.7326 61.7967 51.8337 61.9502 51.9009C61.9393 52.0766 61.9699 52.2525 62.0398 52.4141C62.3875 53.2141 62.4082 53.9519 62.2068 54.5792C62.0208 55.1511 61.6455 55.6522 61.16 56.0376C60.659 56.4385 60.046 56.7115 59.409 56.8169C58.679 56.9361 57.9197 56.8376 57.2655 56.4557L52.2278 46.9364C52.0897 46.6759 51.8541 46.4811 51.5728 46.3949C51.2916 46.3087 50.9878 46.3382 50.7282 46.4768C50.1876 46.7636 49.9827 47.4375 50.2685 47.9801L55.1392 57.1815C54.3162 58.0386 53.4915 58.5673 52.6686 58.7954C51.806 59.0321 50.9004 58.9457 49.9569 58.5621L44.5817 50.0917C44.504 49.9689 44.4029 49.8627 44.2841 49.7791C44.1654 49.6956 44.0315 49.6364 43.8899 49.605C43.7484 49.5735 43.602 49.5704 43.4593 49.5958C43.3165 49.6212 43.1802 49.6746 43.058 49.753C42.9357 49.8311 42.8299 49.9325 42.7466 50.0516C42.6634 50.1707 42.6043 50.3051 42.5728 50.4471C42.5413 50.5891 42.538 50.736 42.5631 50.8793C42.5881 51.0226 42.6411 51.1595 42.7189 51.2822L47.8185 59.3172C46.9491 60.2728 46.0228 60.8655 45.0414 61.078C43.9671 61.3113 42.7722 61.1022 41.4551 60.43L37.9153 53.7826C37.8471 53.6541 37.7544 53.5403 37.6423 53.4478C37.5303 53.3553 37.4012 53.2859 37.2623 53.2435C37.1235 53.2011 36.9778 53.1867 36.8334 53.2009C36.689 53.2151 36.5488 53.2578 36.4209 53.3264C36.2929 53.3949 36.1795 53.488 36.0874 53.6005C35.9953 53.7129 35.9261 53.8425 35.8839 53.9818C35.8417 54.1211 35.8272 54.2674 35.8414 54.4123C35.8555 54.5572 35.898 54.6979 35.9664 54.8263L39.2221 60.9415C38.9139 61.1661 38.5988 61.3459 38.2786 61.4789C37.7552 61.6949 37.206 61.7951 36.6309 61.7796C35.1021 61.7329 34.1069 61.3096 33.3459 60.627C32.5316 59.8961 31.8859 58.7885 31.1542 57.5063L26.1561 48.7577C25.9719 48.3983 25.5983 48.1529 25.1679 48.1529H21.096V26.5328H28.062C28.3203 26.5328 28.5596 26.4446 28.749 26.2943C30.3915 25.1694 31.8928 24.2916 33.5026 23.7888C34.1276 23.5935 34.7767 23.4535 35.4636 23.374C35.241 23.1757 35.0246 22.9706 34.8145 22.7589C34.4013 22.3442 34.0122 21.9053 33.649 21.4439C33.3769 21.5096 33.1101 21.5839 32.8449 21.6668C31.0612 22.225 29.448 23.1408 27.7263 24.3071H20.8722C20.564 23.2686 19.9649 22.5049 19.1299 21.9623C18.0917 21.2884 16.7247 21.0258 15.1355 21.043V21.0379H5.06359L4.92758 21.0465C3.27131 21.1243 1.92838 21.6098 1.03654 22.6846C0.153311 23.7507 -0.208245 25.3111 0.118877 27.5177L1.7631 47.9577L1.77343 48.0527C2.04718 50.6481 2.68765 52.4123 3.62425 53.5009C4.68138 54.7312 6.03291 55.12 7.60826 54.8626L15.5642 54.8608C17.4512 54.8989 18.8165 54.2612 19.7462 53.0569C20.2989 52.3432 20.6691 51.4429 20.8808 50.3785H24.5274L29.2294 58.6105C30.0523 60.0516 30.7858 61.3044 31.8722 62.279C33.0119 63.3019 34.4444 63.9343 36.5707 63.9965C37.4574 64.0225 38.3079 63.867 39.1171 63.5317C39.6887 63.295 40.2362 62.9701 40.7578 62.5589C42.4365 63.352 44.0187 63.5766 45.508 63.2518C46.9715 62.9338 48.2989 62.0958 49.4989 60.7618C50.7644 61.2059 52.0143 61.275 53.2488 60.9346C54.4781 60.5959 55.6557 59.8546 56.7765 58.6814C57.7389 59.0822 58.7737 59.1704 59.7637 59.0079C60.776 58.8421 61.7453 58.4101 62.539 57.7776C63.35 57.1314 63.9853 56.2709 64.3124 55.2583C64.6292 54.2768 64.6498 53.1692 64.2521 52.0028ZM3.97376 47.8194L2.32609 27.3242L2.31576 27.2222C2.08333 25.6774 2.2555 24.6804 2.73414 24.1032C3.18178 23.5641 3.98065 23.3136 5.02227 23.2635L15.1355 23.2652V23.26H15.1493C16.3287 23.2462 17.2928 23.4069 17.935 23.8233C18.3999 24.1257 18.7132 24.6113 18.8372 25.3318C18.8337 25.3612 18.8337 25.3906 18.8337 25.4199C18.8337 25.5288 18.8492 25.6342 18.8785 25.7344L18.8819 48.3292C18.8389 49.8169 18.5634 50.9695 17.997 51.7004C17.5115 52.3277 16.7384 52.6612 15.621 52.6422L15.5023 52.637L7.53423 52.6404C7.46881 52.6404 7.40338 52.6456 7.33624 52.6577C6.50121 52.8115 5.80565 52.6422 5.29602 52.0495C4.65211 51.2995 4.19586 49.9379 3.97376 47.8194Z" fill="black"/>
<path fill-rule="evenodd" clip-rule="evenodd" d="M66.8553 25.4217C66.8106 25.7465 66.7882 26.0904 66.7882 26.4533L66.7848 49.7668L67.2031 52.0028C67.6146 52.8512 68.1277 53.532 68.7475 54.0297C69.5963 54.7088 70.6087 55.0336 71.8035 54.9714L80.3345 54.9697C82.1027 55.044 83.4525 54.4928 84.4218 53.3748C85.3326 52.3242 85.8439 50.8002 85.9972 48.8597L88.0942 27.1064C88.3439 25.007 87.7585 23.5434 86.5154 22.5809C85.398 21.7169 83.7814 21.3541 81.798 21.361L72.3114 21.3575V21.3627C70.5622 21.3644 69.1986 21.7843 68.2465 22.6449C68.0295 22.8418 67.835 23.0561 67.6663 23.2911L66.8553 25.4217ZM78.4389 45.0582C78.4389 44.0006 77.585 43.1453 76.5313 43.1453C75.4793 43.1453 74.6254 44.0006 74.6254 45.0582C74.6254 46.1139 75.4793 46.971 76.5313 46.971C77.585 46.971 78.4389 46.1139 78.4389 45.0582Z" fill="#FF4A4A"/>
<path d="M63.1072 22.9092L66.8553 25.4217L67.6663 23.2911L64.3348 21.0655C63.7645 20.6834 63.236 20.3125 62.7058 19.9405L62.6492 19.9009L62.6204 19.8806C61.5296 19.113 60.4232 18.3345 59.2678 17.6545C58.9941 18.3492 58.6704 19.0196 58.3019 19.6589C59.3505 20.2869 60.3717 21.0045 61.3808 21.7136L61.3855 21.7169C61.9778 22.1334 62.5683 22.5481 63.1072 22.9092Z" fill="black"/>
</g>
</g>
<defs>
<clipPath id="clip0_64_522">
<rect width="88.1509" height="64" fill="white"/>
</clipPath>
</defs>
</svg>
