<svg width="60" height="64" viewBox="0 0 60 64" fill="none" xmlns="http://www.w3.org/2000/svg">
<g id="innovation-creativity-icon 1" clip-path="url(#clip0_64_512)">
<g id="Group">
<path id="Vector" d="M35.7917 60.5939C35.1562 61.6825 34.2812 62.5314 33.2812 63.1095C32.3906 63.6304 31.3958 63.9272 30.401 63.9897C29.3906 64.0522 28.3698 63.8595 27.4375 63.4116C26.8021 63.0991 26.2083 62.6668 25.6823 62.1043L35.7917 60.5939ZM37.1927 49.9116L36.8646 51.4481L36.7812 52.5418L23.5885 54.5054C23.5417 53.7189 23.4167 52.87 23.2188 51.9897L37.1927 49.9116ZM36.7552 54.9377L36.7656 55.5991L36.7812 55.8283C36.8177 56.2606 36.8229 56.6981 36.7969 57.1304L36.599 58.0835L24.349 59.9064L24.1354 59.4168L23.6562 57.4585L23.6458 56.8908L36.7552 54.9377Z" fill="#5C546A"/>
<path id="Vector_2" d="M29.5619 2C29.5776 1.43229 29.8172 0.927083 30.1974 0.567708C30.5672 0.213542 31.0776 0 31.6297 0.00520833V0C31.6765 0 31.7234 0.00520833 31.7703 0.0104167C32.2859 0.0520833 32.7494 0.286458 33.0828 0.635417C33.4369 1.00521 33.6505 1.51042 33.6453 2.06771H33.6505C33.6505 2.10417 33.6505 2.14063 33.6453 2.17188L33.5359 6.53125H33.5411C33.5411 6.57813 33.5359 6.625 33.5307 6.67188C33.489 7.19271 33.2547 7.65104 32.9057 7.98438C32.5307 8.33854 32.0255 8.55208 31.4734 8.54688V8.55208C31.4265 8.55208 31.3797 8.54688 31.3328 8.54167C30.8119 8.5 30.3536 8.26563 30.0203 7.91667C29.6661 7.54167 29.4526 7.03646 29.4578 6.48438H29.4526C29.4526 6.44792 29.4526 6.41146 29.4578 6.38021L29.5619 2ZM7.42653 9.63542C7.01507 9.25 6.79632 8.73438 6.77549 8.21354C6.75465 7.69271 6.93694 7.16146 7.31715 6.75C7.70257 6.33854 8.21819 6.11979 8.73903 6.09896C9.25986 6.07813 9.79111 6.26042 10.2026 6.64063L13.4734 9.6875C13.8849 10.0729 14.1036 10.5885 14.1244 11.1094C14.1453 11.6354 13.963 12.1615 13.5828 12.5729C13.1974 12.9844 12.6817 13.2031 12.1609 13.224C11.6349 13.2448 11.1088 13.0625 10.6974 12.6823L7.42653 9.63542ZM2.07757 32.1146C1.52549 32.125 1.02028 31.9115 0.645277 31.5625C0.265069 31.2031 0.020277 30.7031 -0.000556363 30.1354C-0.0213897 29.5729 0.192152 29.0521 0.551527 28.6719C0.910902 28.2917 1.4109 28.0469 1.97861 28.0313L6.44215 27.8802C7.00465 27.8594 7.52549 28.0729 7.90569 28.4323C8.2859 28.7917 8.53069 29.2917 8.54632 29.8594V29.8906H8.55153L8.54632 29.9635C8.5359 30.4896 8.32757 30.9635 7.99424 31.3229C7.63486 31.7031 7.13486 31.9427 6.56715 31.9635H6.5359V31.9688H6.48903L2.07757 32.1146ZM57.6505 25.7865L57.7182 25.7813C58.2494 25.75 58.7442 25.9219 59.1297 26.2344C59.5359 26.5625 59.8119 27.0521 59.8744 27.6094V27.6302C59.8797 27.6302 59.8797 27.6875 59.8797 27.6979C59.9109 28.2292 59.739 28.724 59.4265 29.1094C59.0984 29.5156 58.6088 29.7917 58.0515 29.8542L53.6088 30.3229C53.0463 30.3802 52.5151 30.2031 52.114 29.875C51.7078 29.5469 51.4265 29.0573 51.3692 28.5C51.3119 27.9427 51.489 27.4063 51.8172 27.0052C52.1453 26.599 52.6349 26.3177 53.1922 26.2604C54.6765 26.099 56.1661 25.9271 57.6505 25.7865ZM48.8536 8.01042C49.1713 7.54167 49.6401 7.25 50.1505 7.14583C50.6609 7.04688 51.2078 7.14063 51.6817 7.45313L51.6869 7.45833C52.1557 7.77083 52.4526 8.24479 52.5515 8.75521C52.6505 9.26562 52.5567 9.8125 52.2442 10.2865L49.7599 14C49.4474 14.4688 48.9734 14.7656 48.4578 14.8698C47.9474 14.9688 47.4005 14.875 46.9265 14.5625C46.4578 14.25 46.1609 13.7708 46.0567 13.2604C45.9578 12.75 46.0515 12.2031 46.364 11.7292L48.8536 8.01042Z" fill="black"/>
<path id="Vector_3" d="M18.9412 42.9478C17.4412 41.2343 15.8891 39.4531 14.66 36.8333C13.4569 34.2499 12.7902 31.5833 12.811 28.8124C12.8371 26.0416 13.5402 23.1874 15.0714 20.2395C15.0819 20.2187 15.0923 20.2031 15.1027 20.1822C17.1079 16.7864 19.9152 14.5156 23.0402 13.2447C25.66 12.1718 28.5089 11.8072 31.3006 12.0624C34.0819 12.3176 36.8058 13.1926 39.186 14.5989C42.2121 16.3906 44.7016 19.0468 46.0714 22.401C46.811 24.2187 47.311 26.2447 47.3735 28.4635C47.436 30.677 47.0558 33.0624 46.035 35.5833C44.4725 39.4531 40.8214 43.5989 38.4308 47.4062C38.3006 47.3801 38.1652 47.3749 38.0298 47.3958C32.8787 48.1614 27.7277 48.927 22.5766 49.6926C21.7277 47.1666 20.4256 44.6458 18.9412 42.9478ZM35.66 19.2551C35.4204 19.0885 35.1444 19.0104 34.8631 19.0676C34.5819 19.1249 34.3475 19.2708 34.1808 19.5103L33.2381 20.8437C32.8996 20.6926 32.5558 20.5833 32.1808 20.4895C31.8058 20.3958 31.4621 20.3228 31.0871 20.2656L30.7902 18.526C30.7329 18.2291 30.5871 18.0103 30.3683 17.8437C30.1235 17.677 29.8683 17.6197 29.5714 17.677L27.3891 18.0676C27.1079 18.1249 26.8891 18.2551 26.7069 18.4947C26.5402 18.7395 26.4673 18.9947 26.5194 19.2916L26.8006 20.8853C26.4464 21.0364 26.1183 21.2031 25.8006 21.401C25.4829 21.5885 25.1704 21.8124 24.8944 22.0312L23.4152 21.0103C23.1704 20.8437 22.9152 20.7656 22.6391 20.8228C22.3579 20.8801 22.1235 21.026 21.9569 21.2708L20.6964 23.0676C20.5298 23.3072 20.4569 23.5833 20.5089 23.8645C20.5662 24.1614 20.7121 24.3801 20.9569 24.5468L22.285 25.4895C22.1339 25.8228 22.0246 26.1718 21.9308 26.5468C21.8371 26.9218 21.7641 27.2656 21.7069 27.6406L19.9673 27.9374C19.6704 27.9947 19.4516 28.1406 19.285 28.3593C19.1183 28.6041 19.061 28.8593 19.1183 29.1562L19.5089 31.3385C19.5662 31.6197 19.6964 31.8385 19.9308 32.0208C20.1756 32.1874 20.4308 32.2656 20.7277 32.2083L22.3214 31.927C22.4725 32.2812 22.6391 32.6093 22.8371 32.927C23.0246 33.2447 23.2485 33.5572 23.4673 33.8541L22.4464 35.3124C22.2798 35.552 22.2069 35.8124 22.2589 36.0885C22.3162 36.3697 22.4621 36.6041 22.7016 36.7708L24.5194 38.0468C24.7641 38.2135 25.035 38.2708 25.3162 38.2135C25.5975 38.1562 25.8319 38.026 26.0194 37.7916L26.9673 36.4426C27.3058 36.5937 27.6496 36.7031 28.0246 36.7968C28.3996 36.8906 28.7433 36.9635 29.1183 37.0208L29.4152 38.7603C29.4725 39.0572 29.6183 39.276 29.8371 39.4426C30.0819 39.6093 30.3371 39.6666 30.6339 39.6093L32.8162 39.2187C33.0975 39.1614 33.3162 39.0312 33.4985 38.7968C33.6652 38.5572 33.7433 38.2968 33.686 37.9999L33.4048 36.4062C33.7589 36.2551 34.0871 36.0885 34.4048 35.8906C34.7225 35.7031 35.035 35.4843 35.3319 35.2603L36.7954 36.2812C37.035 36.4479 37.2954 36.5208 37.5923 36.4687C37.8891 36.4114 38.1079 36.2656 38.2746 36.026L39.5506 34.2083C39.7173 33.9687 39.7746 33.6926 39.7173 33.4114C39.66 33.1301 39.5298 32.8958 39.2902 32.7083L37.9412 31.7812C38.0923 31.4478 38.2016 31.0989 38.2954 30.7239C38.3891 30.3489 38.4621 29.9999 38.5194 29.6301L40.2589 29.3333C40.5558 29.276 40.7746 29.1301 40.9412 28.9062C41.0923 28.677 41.1444 28.4218 41.0923 28.1249L40.7016 25.9426C40.6444 25.6614 40.5141 25.4426 40.2798 25.2603C40.035 25.0937 39.7798 25.0156 39.4829 25.0728L37.8891 25.3541C37.7381 25.0156 37.5714 24.6874 37.3735 24.3541C37.186 24.0156 36.9621 23.7239 36.7433 23.4479L37.7641 21.9687C37.9308 21.7291 38.0037 21.4687 37.9516 21.1926C37.8944 20.9114 37.7485 20.677 37.5089 20.5104L35.7121 19.2499L35.66 19.2551ZM29.3058 24.4062C29.8787 24.3124 30.4569 24.3124 31.0298 24.4426C31.5819 24.5728 32.0871 24.7968 32.5454 25.1093C32.9881 25.427 33.3787 25.8281 33.6964 26.3176C34.0141 26.7968 34.2121 27.3385 34.3058 27.9114C34.3996 28.4843 34.3996 29.0624 34.2694 29.6353C34.1391 30.1874 33.9152 30.6926 33.6027 31.151C33.285 31.5937 32.8839 31.9843 32.3944 32.302C31.9152 32.6197 31.3735 32.8176 30.8006 32.9114C30.2277 33.0051 29.6496 33.0051 29.0766 32.8749C28.5246 32.7447 28.0194 32.5208 27.561 32.2083C27.1183 31.8906 26.7277 31.4895 26.41 31.0051C26.0923 30.526 25.8944 29.9843 25.8006 29.4114C25.7069 28.8385 25.7069 28.2603 25.8371 27.6874C25.9673 27.1353 26.1912 26.6301 26.5037 26.1718C26.8214 25.7291 27.2277 25.3385 27.7121 25.0208C28.2016 24.7031 28.7329 24.4947 29.3058 24.4062Z" fill="#FFC229"/>
</g>
</g>
<defs>
<clipPath id="clip0_64_512">
<rect width="59.8854" height="64" fill="white"/>
</clipPath>
</defs>
</svg>
